<svg width="16" height="16" viewBox="0 0 16 16" fill="none" xmlns="http://www.w3.org/2000/svg">
<path d="M16 16V0H0V16H16Z" fill="#516300"/>
<rect x="0.727295" y="1" width="14.5455" height="14" fill="#344000"/>
<path d="M11.5 4V9.55556C11.5 9.96811 11.3447 10.3638 11.0684 10.6555C10.792 10.9472 10.4172 11.1111 10.0263 11.1111C9.63547 11.1111 9.26063 10.9472 8.98426 10.6555C8.70789 10.3638 8.55263 9.96811 8.55263 9.55556C8.55263 9.143 8.70789 8.74733 8.98426 8.45561C9.26063 8.16389 9.63547 8 10.0263 8C10.2537 8 10.4684 8.05333 10.6579 8.15111V5.54222L6.44737 6.48889V10.4444C6.44737 10.857 6.29211 11.2527 6.01574 11.5444C5.73937 11.8361 5.36453 12 4.97368 12C4.58284 12 4.208 11.8361 3.93163 11.5444C3.65526 11.2527 3.5 10.857 3.5 10.4444C3.5 10.0319 3.65526 9.63622 3.93163 9.3445C4.208 9.05278 4.58284 8.88889 4.97368 8.88889C5.20105 8.88889 5.41579 8.94222 5.60526 9.04V5.33333L11.5 4Z" fill="#516300"/>
</svg>
