<svg width="14" height="16" viewBox="0 0 14 16" fill="none" xmlns="http://www.w3.org/2000/svg">
<path fill-rule="evenodd" clip-rule="evenodd" d="M9 0L14 5.96234L14 16H0V0H9ZM6.47699 5.64705C6.32798 5.64705 6.19398 5.71011 6.09698 5.82211C5.65598 6.32188 5.81898 7.43058 5.93099 8.0894C5.95598 8.23905 5.93499 8.39058 5.86699 8.52705L4.91198 10.4706C4.84199 10.6118 4.72998 10.7256 4.58799 10.8C3.98498 11.1153 2.97398 11.5473 2.85198 12.3219C2.80798 12.5741 2.89698 12.7915 3.10498 12.9873C3.24598 13.1134 3.41699 13.1765 3.60298 13.1765C4.32398 13.1765 4.77899 12.5788 5.26999 11.9388C5.48798 11.6536 5.81599 11.4786 6.17698 11.4315C6.85299 11.344 7.66298 11.1605 8.15299 11.04C8.39999 10.9788 8.65199 10.9939 8.89498 11.0663C9.32499 11.1962 9.48799 11.2753 9.98199 11.2753C10.428 11.2753 10.733 11.1774 10.881 10.9882C11 10.848 11.029 10.6588 10.971 10.4414C10.866 10.0847 10.953 9.69411 9.79299 9.69411C9.53299 9.69411 9.27998 9.71764 9.06898 9.74493C8.74298 9.78635 8.41998 9.65364 8.20999 9.40423C7.92399 9.06634 7.63299 8.66728 7.43099 8.3774C7.28799 8.17317 7.23999 7.92752 7.28699 7.6847C7.42399 6.97882 7.44999 6.45458 7.07898 5.96234C6.92298 5.75246 6.71399 5.64705 6.47699 5.64705Z" fill="#516300"/>
<path d="M9 6V0L14 6H9Z" fill="#344000"/>
<path fill-rule="evenodd" clip-rule="evenodd" d="M5.50793 10.8159C6.32494 10.4544 7.95094 10.2719 7.95094 10.2719C7.13294 9.53021 6.65894 8.47986 6.65894 8.47986C6.27594 9.53492 5.59894 10.6822 5.50793 10.8159Z" fill="#516300"/>
</svg>
