<svg width="16" height="16" viewBox="0 0 16 16" fill="none" xmlns="http://www.w3.org/2000/svg">
<path d="M16 16V0H0V16H16Z" fill="#516300"/>
<rect x="0.727295" y="1" width="14.5455" height="14" fill="#344000"/>
<g clip-path="url(#clip0_84_58)">
<path d="M8 3C7.37625 3 6.85458 3.40208 6.64667 3.90417C6.5726 4.0917 6.53881 4.29272 6.5475 4.49417C6.41136 4.34558 6.24557 4.2272 6.06083 4.14667C5.86758 4.06801 5.65973 4.03164 5.45125 4.04C5.08053 4.0516 4.72803 4.2035 4.465 4.465C4.02333 4.90583 3.93875 5.55875 4.14667 6.06083C4.22125 6.24083 4.3425 6.4025 4.48833 6.54167C4.28846 6.53613 4.0896 6.57188 3.90417 6.64667C3.40208 6.85458 3 7.37583 3 8C3 8.62375 3.40208 9.14542 3.90417 9.35333C4.08625 9.42875 4.28917 9.4575 4.49333 9.45167C4.34458 9.5925 4.2225 9.75667 4.14667 9.93917C3.93875 10.4412 4.02375 11.0942 4.465 11.535C4.90583 11.9767 5.55875 12.0612 6.06083 11.8533C6.24292 11.7779 6.40667 11.655 6.5475 11.5067C6.54167 11.7108 6.57125 11.9137 6.64667 12.0958C6.85458 12.5979 7.37583 13 8 13C8.62375 13 9.14542 12.5979 9.35333 12.0958C9.4274 11.9083 9.46119 11.7073 9.4525 11.5058C9.59333 11.6542 9.75667 11.7779 9.93917 11.8533C10.4412 12.0612 11.0942 11.9762 11.535 11.535C11.9767 11.0942 12.0612 10.4412 11.8533 9.93917C11.7728 9.75443 11.6544 9.58864 11.5058 9.4525C11.7073 9.46119 11.9083 9.4274 12.0958 9.35333C12.5979 9.14542 13 8.62417 13 8C13 7.37625 12.5979 6.85458 12.0958 6.64667C11.9085 6.57306 11.7078 6.53956 11.5067 6.54833C11.6554 6.4075 11.7775 6.24333 11.8533 6.06083C12.0612 5.55875 11.9762 4.90583 11.535 4.465C11.272 4.2035 10.9195 4.0516 10.5487 4.04C10.3403 4.03164 10.1324 4.06801 9.93917 4.14667C9.75708 4.22208 9.59333 4.34458 9.4525 4.49333C9.46107 4.29217 9.42729 4.09144 9.35333 3.90417C9.14542 3.40208 8.62417 3 8 3ZM7.98292 3.67208C8.14107 3.66862 8.29665 3.71257 8.42962 3.79828C8.56258 3.88399 8.66686 4.00753 8.72902 4.153C8.79118 4.29847 8.80838 4.45922 8.7784 4.61455C8.74843 4.76988 8.67266 4.91268 8.56083 5.02458V6.64667L9.7075 5.5C9.7075 5.34326 9.75398 5.19004 9.84106 5.05971C9.92814 4.92938 10.0519 4.82781 10.1967 4.76783C10.3415 4.70784 10.5009 4.69215 10.6546 4.72273C10.8083 4.75331 10.9495 4.82878 11.0604 4.93962C11.1712 5.05045 11.2467 5.19166 11.2773 5.34539C11.3079 5.49912 11.2922 5.65847 11.2322 5.80328C11.1722 5.94809 11.0706 6.07186 10.9403 6.15894C10.81 6.24602 10.6567 6.2925 10.5 6.2925L9.35333 7.43917H10.9754C11.0863 7.32846 11.2275 7.25311 11.3812 7.22263C11.5349 7.19216 11.6942 7.20793 11.8389 7.26795C11.9837 7.32797 12.1074 7.42954 12.1944 7.55984C12.2814 7.69014 12.3278 7.84331 12.3278 8C12.3278 8.15669 12.2814 8.30986 12.1944 8.44016C12.1074 8.57046 11.9837 8.67203 11.8389 8.73205C11.6942 8.79207 11.5349 8.80784 11.3812 8.77737C11.2275 8.74689 11.0863 8.67154 10.9754 8.56083H9.35333L10.5 9.7075C10.6567 9.7075 10.81 9.75398 10.9403 9.84106C11.0706 9.92814 11.1722 10.0519 11.2322 10.1967C11.2922 10.3415 11.3079 10.5009 11.2773 10.6546C11.2467 10.8083 11.1712 10.9495 11.0604 11.0604C10.9495 11.1712 10.8083 11.2467 10.6546 11.2773C10.5009 11.3079 10.3415 11.2922 10.1967 11.2322C10.0519 11.1722 9.92814 11.0706 9.84106 10.9403C9.75398 10.81 9.7075 10.6567 9.7075 10.5L8.56083 9.35333V10.9754C8.67154 11.0863 8.74689 11.2275 8.77737 11.3812C8.80784 11.5349 8.79207 11.6942 8.73205 11.8389C8.67203 11.9837 8.57046 12.1074 8.44016 12.1944C8.30986 12.2814 8.15669 12.3278 8 12.3278C7.84331 12.3278 7.69014 12.2814 7.55984 12.1944C7.42954 12.1074 7.32797 11.9837 7.26795 11.8389C7.20793 11.6942 7.19216 11.5349 7.22263 11.3812C7.25311 11.2275 7.32846 11.0863 7.43917 10.9754V9.35333L6.2925 10.5C6.2925 10.6567 6.24602 10.81 6.15894 10.9403C6.07186 11.0706 5.94809 11.1722 5.80328 11.2322C5.65847 11.2922 5.49912 11.3079 5.34539 11.2773C5.19166 11.2467 5.05045 11.1712 4.93962 11.0604C4.82878 10.9495 4.75331 10.8083 4.72273 10.6546C4.69215 10.5009 4.70784 10.3415 4.76783 10.1967C4.82781 10.0519 4.92938 9.92814 5.05971 9.84106C5.19004 9.75398 5.34326 9.7075 5.5 9.7075L6.64667 8.56083H5.02458C4.9137 8.67154 4.77249 8.74689 4.61879 8.77737C4.4651 8.80784 4.30582 8.79207 4.16108 8.73205C4.01635 8.67203 3.89265 8.57046 3.80562 8.44016C3.7186 8.30986 3.67215 8.15669 3.67215 8C3.67215 7.84331 3.7186 7.69014 3.80562 7.55984C3.89265 7.42954 4.01635 7.32797 4.16108 7.26795C4.30582 7.20793 4.4651 7.19216 4.61879 7.22263C4.77249 7.25311 4.9137 7.32846 5.02458 7.43917H6.64667L5.5 6.2925C5.34326 6.2925 5.19004 6.24602 5.05971 6.15894C4.92938 6.07186 4.82781 5.94809 4.76783 5.80328C4.70784 5.65847 4.69215 5.49912 4.72273 5.34539C4.75331 5.19166 4.82878 5.05045 4.93962 4.93962C5.05045 4.82878 5.19166 4.75331 5.34539 4.72273C5.49912 4.69215 5.65847 4.70784 5.80328 4.76783C5.94809 4.82781 6.07186 4.92938 6.15894 5.05971C6.24602 5.19004 6.2925 5.34326 6.2925 5.5L7.43917 6.64667V5.02458C7.3294 4.91474 7.25433 4.77507 7.22327 4.62293C7.19221 4.47078 7.20653 4.31286 7.26445 4.16879C7.32237 4.02471 7.42135 3.90083 7.54908 3.81252C7.67681 3.72422 7.82767 3.67538 7.98292 3.67208Z" fill="#516300"/>
</g>
<defs>
<clipPath id="clip0_84_58">
<rect width="10" height="10" fill="white" transform="translate(3 3)"/>
</clipPath>
</defs>
</svg>
