<svg width="16" height="16" viewBox="0 0 16 16" fill="none" xmlns="http://www.w3.org/2000/svg">
<path d="M14.5778 8C14.5778 4.36719 11.6328 1.42222 8 1.42222C4.3672 1.42222 1.42222 4.3672 1.42222 8C1.42222 9.35814 1.83341 10.6182 2.5375 11.6653C3.71973 13.4234 5.72508 14.5778 8 14.5778C10.2749 14.5778 12.2803 13.4234 13.4625 11.6653C14.1666 10.6182 14.5778 9.35813 14.5778 8ZM16 8C16 9.64942 15.4998 11.1841 14.6431 12.4583C13.2079 14.5927 10.7683 16 8 16C5.40453 16 3.0982 14.7634 1.6375 12.85L1.35694 12.4583C0.500206 11.1841 6.85191e-08 9.64941 0 8C0 3.58172 3.58172 0 8 0C12.4183 1.8326e-07 16 3.58173 16 8Z" fill="#FFF"/>
<path d="M10.6666 5.33335C10.6666 6.80615 9.47272 8.00002 7.99992 8.00002C6.52712 8.00002 5.33325 6.80615 5.33325 5.33335C5.33325 3.86059 6.52712 2.66669 7.99992 2.66669C9.47272 2.66669 10.6666 3.86059 10.6666 5.33335Z" fill="#FFF"/>
<path d="M9.40359 9.5H6.59657C4.63166 9.5 3.05068 10.5707 2.66675 12.039C3.95489 13.7496 5.86637 14.8333 8.00011 14.8333C10.1338 14.8333 12.0453 13.7496 13.3334 12.039C12.9495 10.5707 11.3685 9.5 9.40359 9.5Z" fill="#FFF"/>
</svg>
